<?xml version="1.0" ?><svg viewBox="0 0 64 64" xmlns="http://www.w3.org/2000/svg"><g data-name="cleanser spray" id="cleanser_spray"><circle cx="25" cy="41" r="10" style="fill:#fed302"/><path d="M39,3v8H32a3,3,0,0,0-3,3v1H21a3,3,0,0,0-3-3H7V11a8,8,0,0,1,8-8Z" style="fill:#e6e6e6"/><rect height="4" style="fill:#ff4f6f" width="8" x="21" y="15"/><path d="M43,57a4.18,4.18,0,0,1-4.07,4H11.06A4.17,4.17,0,0,1,7,57c0-21.28,5.77-38,12-38H31a2,2,0,0,1,2,2v6a2,2,0,0,0,2,2c2,0,4,3.06,5.53,8.1A72.94,72.94,0,0,1,43,57ZM35,41A10,10,0,1,0,25,51,10,10,0,0,0,35,41Z" style="fill:#1989dd"/><path d="M7,11v1H18a3,3,0,0,1,3,3h4V3H15A8,8,0,0,0,7,11Z" style="fill:#b3b3b3"/><rect height="4" style="fill:#d4425c" width="4" x="21" y="15"/><path d="M15,41A10,10,0,0,1,25,31V19H19C12.77,19,7,35.72,7,57a4.17,4.17,0,0,0,4.06,4H25V51A10,10,0,0,1,15,41Z" style="fill:#1367a6"/><rect height="4" style="fill:#1367a6" width="3" x="42" y="5"/><polygon points="30 40 26 40 26 36 22 36 22 40 18 40 18 44 22 44 22 48 26 48 26 44 30 44 30 40" style="fill:#f89919"/><polygon points="31 39 27 39 27 35 23 35 23 39 19 39 19 43 23 43 23 47 27 47 27 43 31 43 31 39" style="fill:#00c491"/><polygon points="23 35 23 39 19 39 19 43 23 43 23 47 25 47 25 35 23 35" style="fill:#00936d"/><path d="M46,25c-5,0-9-4.48-9-10" style="fill:none;stroke:#00936d;stroke-linecap:round;stroke-linejoin:round;stroke-width:2px"/><polyline points="42 5 45 5 45 9 42 9" style="fill:none;stroke:#0a1c28;stroke-linejoin:round;stroke-width:2px"/><path d="M29,19V14a3,3,0,0,1,3-3h7V3H15a8,8,0,0,0-8,8v1H18a3,3,0,0,1,3,3v4" style="fill:none;stroke:#0a1c28;stroke-linejoin:round;stroke-width:2px"/><path d="M11.06,61A4.17,4.17,0,0,1,7,57c0-21.28,5.77-38,12-38H31a2,2,0,0,1,2,2v6a2,2,0,0,0,2,2h0c4.07,0,8,12.26,8,28a4.18,4.18,0,0,1-4.07,4Z" style="fill:none;stroke:#0a1c28;stroke-linejoin:round;stroke-width:2px"/><line style="fill:none;stroke:#0a1c28;stroke-linejoin:round;stroke-width:2px" x1="21" x2="29" y1="15" y2="15"/><line style="fill:none;stroke:#1989dd;stroke-linejoin:round;stroke-width:2px" x1="48" x2="50" y1="7" y2="7"/><line style="fill:none;stroke:#1989dd;stroke-linejoin:round;stroke-width:2px" x1="52" x2="54" y1="5" y2="5"/><line style="fill:none;stroke:#1989dd;stroke-linejoin:round;stroke-width:2px" x1="52" x2="54" y1="9" y2="9"/><line style="fill:none;stroke:#1989dd;stroke-linejoin:round;stroke-width:2px" x1="56" x2="58" y1="3" y2="3"/><line style="fill:none;stroke:#1989dd;stroke-linejoin:round;stroke-width:2px" x1="56" x2="58" y1="7" y2="7"/><line style="fill:none;stroke:#1989dd;stroke-linejoin:round;stroke-width:2px" x1="56" x2="58" y1="11" y2="11"/></g></svg>