<svg xmlns="http://www.w3.org/2000/svg" shape-rendering="geometricPrecision" text-rendering="geometricPrecision" image-rendering="optimizeQuality" fill-rule="evenodd" clip-rule="evenodd" viewBox="0 0 512 392.17"><path d="M326.67 35.18h142.72c7.37 0 13.4 6.05 13.4 13.39v110.64c0 7.34-6.05 13.39-13.4 13.39H326.67c-7.34 0-13.39-6.02-13.39-13.39V48.57c0-7.36 6.02-13.39 13.39-13.39zM94.29 205.03c-22.67-.04-45.01-3.28-67.01-9.83 20.04 21.49 69.45 30 126.76 32.62 11.87-.25 21.25 1.98 20.17 14.68v119.59c4.2.02 16.84-5.59 16.9-16.91v-11.96c14.38-6.56 28.87-16.14 37.67-27.42 9.39-12.04 15.2-27.05 15.85-45.51l.03-.26v-84.66c.79-12.1 3.65-21.54 8.94-28.05 4.38-5.39 10.74-8.99 19.32-10.68.87 1.61 2.03 3.07 3.37 4.35 2.18 2.07 4.91 3.69 7.77 4.63v82.32c0 5.99 2.45 11.43 6.4 15.37 3.94 3.94 9.38 6.39 15.37 6.39h184.4c5.98 0 11.43-2.45 15.37-6.39 3.94-3.95 6.4-9.39 6.4-15.37V21.76c0-5.97-2.45-11.42-6.4-15.37C501.66 2.45 496.22 0 490.23 0h-184.4c-5.99 0-11.43 2.45-15.38 6.39-3.94 3.94-6.39 9.39-6.39 15.37v80.05c-2.86.95-5.59 2.57-7.77 4.64-3.11 2.96-5.2 6.89-5.2 11.27v1.93c-13.37 2.31-23.46 8.04-30.7 16.94-7.73 9.52-11.81 22.37-12.77 38.27l-.03.51.02 84.66c-.55 14.43-5.04 26.06-12.24 35.3-6.22 7.98-14.57 14.31-24.26 19.24V182c-16.37-31.41-141.98-31.18-180.57-9.99-11.6 6.36-10.51 9.21-10.51 20.72v135.14c1.89 21.7 39.13 41.76 55.95 47.66 13.4 4.7 29.56 8.87 48.32 11.91 5.11.83 10.42 1.57 15.91 2.21 10.08 1.19 20.81 2.04 32.15 2.5 11.15.5 12.5-5.9 11.97-17.07V247.32c-.06-11.02-5.99-13.91-15.73-13.63-14.98-.74-29.97-1.88-45.03-4.02-27.97-3.98-68.78-11.08-88.31-33.65-2.87-4.24-4.28-7.9-4.31-11.03-.08-8.59 15.27-13.93 32.95-17.17 19.99-3.66 42.96-4.65 50.05-4.64 119.57.2 112.06 42.08.34 41.85zm302.69-9.06h2.1c7.39 0 13.43 6.07 13.43 13.43 0 7.36-6.07 13.43-13.43 13.43h-2.1c-7.36 0-13.43-6.04-13.43-13.43s6.05-13.43 13.43-13.43zm-72.63-.32h28.49c3.77 0 7.21 1.55 9.7 4.04 2.5 2.48 4.05 5.93 4.05 9.71 0 3.77-1.55 7.2-4.04 9.7-2.5 2.5-5.94 4.05-9.71 4.05h-28.49c-3.78 0-7.22-1.55-9.71-4.04l-.15-.17c-2.4-2.47-3.89-5.85-3.89-9.54 0-3.79 1.55-7.23 4.04-9.72s5.93-4.03 9.71-4.03zm118.87 0h28.49c3.78 0 7.22 1.55 9.71 4.04 2.49 2.48 4.04 5.93 4.04 9.71 0 3.77-1.55 7.2-4.04 9.7-2.5 2.5-5.94 4.05-9.71 4.05h-28.49c-3.78 0-7.22-1.55-9.71-4.04l-.15-.17c-2.4-2.47-3.89-5.85-3.89-9.54 0-3.79 1.55-7.23 4.04-9.72s5.93-4.03 9.71-4.03zm28.49 5.35h-28.49c-2.31 0-4.41.94-5.93 2.47a8.377 8.377 0 0 0-2.47 5.93c0 2.25.9 4.3 2.35 5.81l.12.11c1.53 1.53 3.63 2.48 5.93 2.48h28.49c2.31 0 4.41-.95 5.93-2.47a8.394 8.394 0 0 0 2.47-5.93c0-2.31-.95-4.41-2.47-5.93a8.377 8.377 0 0 0-5.93-2.47zm-118.87 0h-28.49c-2.31 0-4.41.94-5.93 2.47a8.377 8.377 0 0 0-2.47 5.93c0 2.25.9 4.3 2.35 5.81l.12.11c1.53 1.53 3.63 2.48 5.93 2.48h28.49c2.31 0 4.41-.95 5.93-2.47a8.394 8.394 0 0 0 2.47-5.93c0-2.31-.95-4.41-2.47-5.93a8.335 8.335 0 0 0-5.93-2.47zM490.23 8.92h-184.4c-3.53 0-6.75 1.45-9.07 3.77-2.33 2.33-3.78 5.54-3.78 9.07v83.6a4.473 4.473 0 0 1-4.02 4.43c-2.31.22-4.73 1.39-6.54 3.1-1.44 1.38-2.41 3.08-2.41 4.83v12c0 1.75.97 3.45 2.41 4.82 1.73 1.65 4.03 2.78 6.25 3.07 2.39.08 4.31 2.05 4.31 4.46v85.87c0 3.53 1.45 6.74 3.78 9.07s5.54 3.78 9.07 3.78h184.4c3.52 0 6.74-1.46 9.07-3.79s3.78-5.54 3.78-9.06V21.76c0-3.52-1.45-6.73-3.78-9.06s-5.54-3.78-9.07-3.78zM327.37 110.4h11.59l5.95-13.77c.19-.45.72-.66 1.17-.47.17.08.3.2.4.35l13.12 20.79 11.95-28.16c.19-.45.71-.66 1.16-.47.21.08.36.24.45.42l14.32 29.07 6.22-7.36c.17-.21.42-.31.68-.31l6.32-.01c.3 0 .57.16.73.4l5.91 7.02c.32.38.27.94-.11 1.25-.16.14-.37.21-.57.21l-8.6.01-11.67 13.82c-.32.37-.88.42-1.26.1a.896.896 0 0 1-.24-.31l-11.99-24.37-11.09 26.15c-.19.45-.71.66-1.17.47a.913.913 0 0 1-.4-.35l-13.2-20.9-2.05 4.76a.89.89 0 0 1-.82.54h-16.8c-.49 0-.89-.4-.89-.89v-7.1c0-.49.4-.89.89-.89zM429.8 81.22c4.52-4.71 7.68-8.78 14.64-9.58 13.07-1.51 25.09 11.87 18.49 25.04-1.88 3.76-5.7 8.22-9.93 12.59-4.65 4.81-9.78 9.52-13.38 13.09l-9.82 9.74-8.11-7.82c-9.75-9.39-25.66-21.22-26.19-35.87-.36-10.26 7.74-16.84 17.05-16.72 8.33.11 11.83 4.25 17.25 9.53z"/></svg>