<?xml version="1.0" encoding="utf-8"?><!-- Uploaded to: SVG Repo, www.svgrepo.com, Generator: SVG Repo Mixer Tools -->
<svg fill="#000000" width="800px" height="800px" viewBox="0 0 24 24" id="first-aid-kit-3" data-name="Flat Line" xmlns="http://www.w3.org/2000/svg" class="icon flat-line"><path id="secondary" d="M8.5,7.5h6a1,1,0,0,1,1,1v16a1,1,0,0,1-1,1h-6a0,0,0,0,1,0,0V7.5A0,0,0,0,1,8.5,7.5Z" transform="translate(28.5 4.5) rotate(90)" style="fill: rgb(44, 169, 188); stroke-width: 2;"></path><path id="primary" d="M21,19V9a1,1,0,0,0-1-1H4A1,1,0,0,0,3,9V19a1,1,0,0,0,1,1H20A1,1,0,0,0,21,19ZM16,8V5a1,1,0,0,0-1-1H9A1,1,0,0,0,8,5V8Zm5,5V9a1,1,0,0,0-1-1H4A1,1,0,0,0,3,9v4Zm-5,1V12M8,14V12" style="fill: none; stroke: rgb(0, 0, 0); stroke-linecap: round; stroke-linejoin: round; stroke-width: 2;"></path></svg>