<?xml version="1.0" encoding="utf-8"?>
<!-- Generator: Adobe Illustrator 27.5.0, SVG Export Plug-In . SVG Version: 6.00 Build 0)  -->
<svg version="1.1" xmlns="http://www.w3.org/2000/svg" xmlns:xlink="http://www.w3.org/1999/xlink" x="0px" y="0px"
	 viewBox="0 0 500 500" style="enable-background:new 0 0 500 500;" xml:space="preserve">
<g id="BACKGROUND">
</g>
<g id="OBJECTS">
	<circle style="fill:#CCEBEA;" cx="248.956" cy="249.689" r="170.327"/>
	<g>
		<path style="fill:#7FC9C8;" d="M249.247,205.374l-12.786,50.832c-2.066,8.232-5.221,16.151-9.37,23.556l-24.602,43.941
			l-27.039,89.172l-0.059,0.211l-73.257-48.293l26.828-55.942l-0.101-0.321l-5.162-16.64l-13.705-44.194l-0.101-0.708
			l-29.612-77.441c-2.21-5.423,0.177-11.614,5.415-14.161c0.051-0.042,0.11-0.068,0.169-0.093
			c5.415-2.522,11.774-0.304,14.506,4.858c0.16,0.304,0.304,0.607,0.438,0.928l21.009,50.393c0.354,0.852,1.636,0.413,1.383-0.481
			l-23.564-83.943c-1.316-4.681,0.683-9.522,4.613-12.001c0.768-0.489,1.611-0.877,2.513-1.164
			c5.035-1.586,10.357,0.734,12.727,5.221c0.329,0.616,0.599,1.282,0.81,1.982l22.687,72.709c0.295,0.987,1.543,0.902,1.898,0.169
			c0.084-0.169,0.118-0.38,0.076-0.624l-16.117-87.511c-0.928-5.432,2.303-10.585,7.363-12.255h0.008
			c0.582-0.186,1.181-0.337,1.805-0.43c4.706-0.709,9.184,1.704,11.301,5.71c0.498,0.928,0.869,1.948,1.071,3.028l17.838,79.566
			c0.008,0.025,0.017,0.059,0.017,0.084l1.982,8.83c-0.008,0.008,0,0.008,0,0.017l0.194,0.852c0.236,1.223,2.007,1.037,2.041-0.152
			c0,0,0,0,0-0.008v-0.093l-6.545-73.35c-0.346-6.368,4.841-11.647,11.209-11.428c0.008,0,0.008,0,0.008,0
			c3.981,0.143,7.439,2.429,9.218,5.786c0.59,1.105,0.987,2.336,1.164,3.652l17.652,93.094l2.977,17.517
			c0.565,3.323,5.111,3.871,6.452,0.784l12.491-28.709c2.378-6.157,9.387-9.1,15.451-6.503c0.16,0.068,0.312,0.135,0.464,0.211
			c2.311,1.113,4.116,2.91,5.246,5.052C249.559,199.546,249.981,202.49,249.247,205.374z"/>
		<path style="fill:#77BDBC;" d="M166.133,312.527c0,0-17.391-0.207-37.273-3.999l-18.866-60.836
			C115.812,262.154,126.909,287.109,166.133,312.527z"/>
		<path style="fill:#77BDBC;" d="M135.827,288.314l-12.128,3.576l-13.705-44.194l-0.101-0.708l-29.612-77.441
			c-2.21-5.423,0.177-11.614,5.415-14.161c-0.236,3.416,0.312,8.872,3.078,17.357C94.796,191.188,135.827,288.314,135.827,288.314z"
			/>
		<path style="fill:#77BDBC;" d="M249.247,205.374l-12.786,50.832c-2.066,8.232-5.221,16.151-9.37,23.556l-24.602,43.941
			l-27.039,89.172l-11.732-11.732l19.019-85.579c9.022-1.237,22.396-20.994,29.08-31.332c4.089-6.324,10.762-22.089,22.536-56.508
			c6.916-20.208,8.51-30.573,8.653-35.693c2.311,1.113,4.116,2.91,5.246,5.052C249.559,199.546,249.981,202.49,249.247,205.374z"/>
		<path style="fill:#5F9696;" d="M145.879,378.263c20.15,13.402,31.433,31.313,29.518,34.76
			c-1.783,3.209-23.984,0.619-44.134-12.783c-20.15-13.402-31.142-32.458-29.177-35.255
			C104.381,361.717,125.729,364.861,145.879,378.263z"/>
		<path style="fill:#77BDBC;" d="M123.202,210.991l-23.564-83.943c-1.316-4.681,0.683-9.522,4.613-12.001
			c-0.211,3.677,0.54,9.927,3.829,20.537C115.628,159.949,127.68,212.273,123.202,210.991z"/>
		<path style="fill:#77BDBC;" d="M145.822,195.144c-0.262-0.101-0.574-0.506-0.936-1.181c0.084-0.169,0.118-0.38,0.076-0.624
			l-16.117-87.511c-0.928-5.432,2.303-10.585,7.363-12.255c-1.4,1.518-3.551,6.815,0.565,25.192
			C142.355,143.654,150.182,196.78,145.822,195.144z"/>
		<path style="fill:#77BDBC;" d="M168.247,181.531l1.982,8.83C169.58,188.616,168.914,185.529,168.247,181.531z"/>
		<path style="fill:#77BDBC;" d="M173.468,131.577c1.704,22.316,1.771,53.674-1.004,59.493v-0.093l-6.545-73.35
			c-0.346-6.368,4.841-11.647,11.209-11.428C175.838,106.73,171.824,110.113,173.468,131.577z"/>
	</g>
	<g>
		<path style="fill:#7FC9C8;" d="M256.97,205.374l12.786,50.832c2.066,8.232,5.221,16.151,9.37,23.556l24.602,43.941l27.039,89.172
			l0.059,0.211l73.257-48.293l-26.828-55.942l0.101-0.321l5.162-16.64l13.705-44.194l0.101-0.708l29.612-77.441
			c2.21-5.423-0.177-11.614-5.415-14.161c-0.051-0.042-0.11-0.068-0.169-0.093c-5.415-2.522-11.774-0.304-14.506,4.858
			c-0.16,0.304-0.304,0.607-0.439,0.928l-21.009,50.393c-0.354,0.852-1.636,0.413-1.383-0.481l23.564-83.943
			c1.316-4.681-0.683-9.522-4.613-12.001c-0.767-0.489-1.611-0.877-2.513-1.164c-5.035-1.586-10.357,0.734-12.727,5.221
			c-0.329,0.616-0.599,1.282-0.81,1.982l-22.687,72.709c-0.295,0.987-1.543,0.902-1.898,0.169c-0.084-0.169-0.118-0.38-0.076-0.624
			l16.117-87.511c0.928-5.432-2.302-10.585-7.363-12.255h-0.008c-0.582-0.186-1.181-0.337-1.805-0.43
			c-4.706-0.709-9.185,1.704-11.302,5.71c-0.497,0.928-0.869,1.948-1.071,3.028l-17.838,79.566
			c-0.008,0.025-0.017,0.059-0.017,0.084l-1.982,8.83c0.008,0.008,0,0.008,0,0.017l-0.194,0.852
			c-0.236,1.223-2.007,1.037-2.041-0.152c0,0,0,0,0-0.008v-0.093l6.545-73.35c0.346-6.368-4.841-11.647-11.209-11.428
			c-0.008,0-0.008,0-0.008,0c-3.981,0.143-7.439,2.429-9.218,5.786c-0.59,1.105-0.987,2.336-1.164,3.652l-17.652,93.094
			l-2.977,17.517c-0.565,3.323-5.111,3.871-6.452,0.784l-12.491-28.709c-2.378-6.157-9.387-9.1-15.451-6.503
			c-0.16,0.068-0.312,0.135-0.464,0.211c-2.311,1.113-4.116,2.91-5.246,5.052C256.658,199.546,256.236,202.49,256.97,205.374z"/>
		<path style="fill:#77BDBC;" d="M340.084,312.527c0,0,17.391-0.207,37.273-3.999l18.866-60.836
			C390.405,262.154,379.308,287.109,340.084,312.527z"/>
		<path style="fill:#77BDBC;" d="M370.39,288.314l12.128,3.576l13.705-44.194l0.101-0.708l29.612-77.441
			c2.21-5.423-0.177-11.614-5.415-14.161c0.236,3.416-0.312,8.872-3.078,17.357C411.421,191.188,370.39,288.314,370.39,288.314z"/>
		<path style="fill:#77BDBC;" d="M256.97,205.374l12.786,50.832c2.066,8.232,5.221,16.151,9.37,23.556l24.602,43.941l27.039,89.172
			l11.732-11.732l-19.019-85.579c-9.022-1.237-22.396-20.994-29.08-31.332c-4.089-6.324-10.762-22.089-22.535-56.508
			c-6.916-20.208-8.51-30.573-8.653-35.693c-2.311,1.113-4.116,2.91-5.246,5.052C256.658,199.546,256.236,202.49,256.97,205.374z"/>
		<path style="fill:#5F9696;" d="M360.339,378.263c-20.15,13.402-31.433,31.313-29.518,34.76
			c1.783,3.209,23.984,0.619,44.135-12.783c20.15-13.402,31.142-32.458,29.177-35.255
			C401.836,361.717,380.489,364.861,360.339,378.263z"/>
		<path style="fill:#77BDBC;" d="M383.016,210.991l23.564-83.943c1.316-4.681-0.683-9.522-4.613-12.001
			c0.211,3.677-0.54,9.927-3.829,20.537C390.589,159.949,378.537,212.273,383.016,210.991z"/>
		<path style="fill:#77BDBC;" d="M360.396,195.144c0.262-0.101,0.573-0.506,0.936-1.181c-0.084-0.169-0.118-0.38-0.076-0.624
			l16.117-87.511c0.928-5.432-2.302-10.585-7.363-12.255c1.4,1.518,3.551,6.815-0.565,25.192
			C363.862,143.654,356.035,196.78,360.396,195.144z"/>
		<path style="fill:#77BDBC;" d="M337.97,181.531l-1.982,8.83C336.637,188.616,337.304,185.529,337.97,181.531z"/>
		<path style="fill:#77BDBC;" d="M332.749,131.577c-1.704,22.316-1.771,53.674,1.004,59.493v-0.093l6.545-73.35
			c0.346-6.368-4.841-11.647-11.209-11.428C330.379,106.73,334.394,110.113,332.749,131.577z"/>
	</g>
</g>
</svg>
