<?xml version='1.0' encoding='iso-8859-1'?>
<!-- Uploaded to: SVG Repo, www.svgrepo.com, Generator: SVG Repo Mixer Tools -->
<svg fill="#000000" height="800px" width="800px" version="1.1" xmlns="http://www.w3.org/2000/svg" viewBox="0 0 474.184 474.184" xmlns:xlink="http://www.w3.org/1999/xlink" enable-background="new 0 0 474.184 474.184">
  <g>
    <path d="m200.813,78.977h-0.119c-5.041,0-9.787,1.3-13.921,3.581v-21.077c0.031-7.713-2.895-14.968-8.237-20.43-5.383-5.503-12.603-8.552-20.328-8.582h-0.119c-5.07,0-9.845,1.309-14,3.604v-4.971c0.031-7.712-2.891-14.966-8.227-20.426-5.38-5.506-12.597-8.555-20.323-8.586h-0.119c-15.994,0-29.059,12.91-29.122,28.809v4.774c-4.068-2.244-8.729-3.53-13.672-3.551h-0.116c-16.081,0-29.216,12.911-29.28,28.811v72.759c-4.1-2.266-8.8-3.564-13.789-3.584h-0.119c-15.868,0-28.83,12.91-28.893,28.779l-.428,106.174c-0.112,27.688 9.715,54.263 27.729,75.163v124.367c0,4.143 3.358,7.5 7.5,7.5h167.432c4.142,0 7.5-3.357 7.5-7.5v-136.19c12.631-19.115 19.342-40.646 19.43-62.417 0.128-31.7 0.001-156.773 0-157.995 0.064-15.932-12.846-28.948-28.779-29.012zm-5.651,247.132v130.982h-152.432v-119.706c7.10543e-15-1.863-0.693-3.66-1.945-5.04-16.728-18.437-25.885-42.311-25.784-67.223l.428-106.173c0.03-7.632 6.263-13.84 13.952-13.84 7.606,0.03 13.819,6.237 13.849,13.808v68.278c0,4.13 3.339,7.483 7.47,7.5 37.599,0.152 68.064,31.031 67.912,68.835-0.017,4.143 3.328,7.514 7.47,7.53 4.159,0 7.514-3.338 7.53-7.47 0.176-43.547-33.013-79.554-75.381-83.531v-159.094c0.03-7.503 6.569-13.841 14.336-13.841 7.542,0.03 13.702,6.237 13.732,13.806v116.917c0,4.143 3.358,7.5 7.5,7.5s7.5-3.357 7.5-7.5v-146.916c0.031-7.631 6.366-13.839 14.18-13.839 3.677,0.015 7.105,1.46 9.656,4.069 2.565,2.625 3.97,6.135 3.955,9.912v146.947c0,4.143 3.358,7.5 7.5,7.5s7.5-3.357 7.5-7.5v-116.71c0.031-7.632 6.312-13.84 14.059-13.84 3.679,0.015 7.111,1.46 9.665,4.071 2.569,2.626 3.975,6.135 3.96,9.91v116.741c0,4.143 3.358,7.5 7.5,7.5s7.5-3.357 7.5-7.5v-70.376c0.03-7.632 6.275-13.84 13.979-13.84 7.662,0.031 13.871,6.29 13.839,13.99 0.001,1.259 0.128,126.295 0,157.957-0.078,19.49-6.34,38.831-18.108,55.934-0.861,1.251-1.322,2.734-1.322,4.252z"/>
    <path d="m61.772,367.161c16.254,8.444 33.831,12.765 52.244,12.839 0.156,0.001 0.311,0.001 0.466,0.001 22.178,0 43.699-6.367 62.265-18.426 3.474-2.257 4.46-6.901 2.204-10.375s-6.901-4.46-10.375-2.205c-16.128,10.476-34.822,16.006-54.094,16.006-0.134,0-0.271,0-0.405-0.001-16.003-0.064-31.274-3.816-45.39-11.149-3.676-1.909-8.204-0.478-10.113,3.197-1.909,3.676-0.477,8.204 3.198,10.113z"/>
    <path d="m172.662,427.092h-107.432c-4.142,0-7.5,3.357-7.5,7.5s3.358,7.5 7.5,7.5h107.432c4.142,0 7.5-3.357 7.5-7.5s-3.358-7.5-7.5-7.5z"/>
    <path d="m473.754,158.889c-0.063-15.869-13.025-28.779-28.893-28.779h-0.118c-4.989,0.02-9.69,1.318-13.79,3.585v-72.79c-0.063-15.869-13.199-28.78-29.28-28.78h-0.117c-4.944,0.021-9.604,1.307-13.672,3.552v-4.807c-0.063-15.868-13.128-28.778-29.122-28.778h-0.119c-7.726,0.031-14.943,3.08-20.323,8.586-5.336,5.46-8.258,12.714-8.227,20.396v5.001c-4.155-2.296-8.93-3.604-14-3.604h-0.118c-7.725,0.03-14.945,3.079-20.328,8.582-5.342,5.462-8.268,12.717-8.237,20.399v21.106c-4.135-2.281-8.881-3.581-13.921-3.581h-0.119c-15.933,0.064-28.843,13.08-28.779,28.975-0.001,1.26-0.128,126.333 0,158.033 0.087,21.771 6.798,43.302 19.43,62.417v136.19c0,4.143 3.358,7.5 7.5,7.5h167.432c4.142,0 7.5-3.357 7.5-7.5v-124.367c18.014-20.9 27.841-47.476 27.729-75.163l-.428-106.173zm-42.301,178.496v119.707h-152.432v-130.983c0-1.519-0.461-3.001-1.321-4.252-11.768-17.103-18.03-36.443-18.108-55.934-0.128-31.662-0.001-156.698 0-157.995-0.031-7.662 6.177-13.921 13.897-13.952 7.646,0 13.891,6.208 13.921,13.84v70.376c0,4.143 3.358,7.5 7.5,7.5s7.5-3.357 7.5-7.5v-116.771c-0.015-3.745 1.391-7.254 3.96-9.88 2.554-2.611 5.986-4.057 9.723-4.071 7.689,0 13.97,6.208 14,13.84v116.71c0,4.143 3.358,7.5 7.5,7.5s7.5-3.357 7.5-7.5v-146.977c-0.015-3.747 1.389-7.257 3.955-9.882 2.55-2.609 5.979-4.055 9.714-4.069 7.756,0 14.091,6.208 14.122,13.809v146.946c0,4.143 3.358,7.5 7.5,7.5s7.5-3.357 7.5-7.5v-116.902c0.038-7.592 6.195-13.791 13.789-13.821 7.71,0 14.25,6.338 14.28,13.811v159.125c-42.369,3.978-75.557,39.984-75.381,83.531 0.017,4.132 3.371,7.47 7.5,7.47 4.173-0.017 7.517-3.388 7.5-7.53-0.152-37.804 30.313-68.683 67.912-68.835 4.13-0.017 7.47-3.37 7.47-7.5v-68.263c0.038-7.594 6.248-13.793 13.908-13.823 7.63,0 13.863,6.208 13.893,13.84l.428,106.173c0.101,24.912-9.056,48.786-25.784,67.223-1.253,1.379-1.946,3.175-1.946,5.039z"/>
    <path d="m405.496,353.851c-14.116,7.333-29.387,11.085-45.39,11.149-0.135,0.001-0.27,0.001-0.405,0.001-19.271,0-37.967-5.53-54.094-16.006-3.473-2.255-8.118-1.269-10.375,2.205-2.256,3.474-1.27,8.118 2.204,10.375 18.567,12.06 40.085,18.426 62.265,18.426 0.154,0 0.312,0 0.466-0.001 18.413-0.074 35.99-4.395 52.244-12.839 3.676-1.909 5.107-6.438 3.198-10.113-1.909-3.675-6.438-5.108-10.113-3.197z"/>
    <path d="m408.953,427.092h-107.432c-4.142,0-7.5,3.357-7.5,7.5s3.358,7.5 7.5,7.5h107.432c4.142,0 7.5-3.357 7.5-7.5s-3.358-7.5-7.5-7.5z"/>
  </g>
</svg>