<?xml version="1.0" encoding="UTF-8"?>
<svg id="Layer_2" data-name="Layer 2" xmlns="http://www.w3.org/2000/svg" xmlns:xlink="http://www.w3.org/1999/xlink" viewBox="0 0 128.1 137.61">
  <defs>
    <style>
      .cls-1 {
        opacity: .33;
      }

      .cls-1, .cls-2, .cls-3, .cls-4, .cls-5, .cls-6, .cls-7, .cls-8, .cls-9, .cls-10, .cls-11, .cls-12, .cls-13, .cls-14, .cls-15, .cls-16, .cls-17, .cls-18, .cls-19, .cls-20 {
        stroke-width: 0px;
      }

      .cls-1, .cls-6, .cls-7, .cls-9, .cls-15, .cls-16, .cls-18 {
        fill: #c8c6c5;
      }

      .cls-2 {
        opacity: .8;
      }

      .cls-2, .cls-3, .cls-4, .cls-5, .cls-8, .cls-11, .cls-13, .cls-14, .cls-17, .cls-19, .cls-20 {
        fill: #fff;
      }

      .cls-3 {
        opacity: .6;
      }

      .cls-4, .cls-18 {
        opacity: 0;
      }

      .cls-5 {
        opacity: .3;
      }

      .cls-6 {
        opacity: .67;
      }

      .cls-7 {
        opacity: .83;
      }

      .cls-8 {
        opacity: .7;
      }

      .cls-10 {
        fill: url(#radial-gradient-2);
      }

      .cls-11 {
        opacity: .4;
      }

      .cls-12 {
        fill: url(#radial-gradient);
      }

      .cls-13 {
        opacity: .2;
      }

      .cls-14 {
        opacity: .9;
      }

      .cls-15 {
        opacity: .17;
      }

      .cls-16, .cls-19 {
        opacity: .5;
      }

      .cls-20 {
        opacity: .1;
      }
    </style>
    <radialGradient id="radial-gradient" cx="64.05" cy="67.04" fx="64.05" fy="67.04" r="56.4" gradientUnits="userSpaceOnUse">
      <stop offset="0" stop-color="#fde95c"/>
      <stop offset="0" stop-color="#fce85b"/>
      <stop offset=".46" stop-color="#f9ba3a"/>
      <stop offset=".8" stop-color="#f79e25"/>
      <stop offset="1" stop-color="#f7941e"/>
    </radialGradient>
    <radialGradient id="radial-gradient-2" cx="63.42" cy="25.54" fx="63.42" fy="25.54" r="25.54" gradientUnits="userSpaceOnUse">
      <stop offset="0" stop-color="#d94130"/>
      <stop offset=".92" stop-color="#d92611"/>
      <stop offset="1" stop-color="#d81e0e"/>
    </radialGradient>
  </defs>
  <g id="Objects">
    <g>
      <g>
        <path class="cls-18" d="M70.24,137.61c-5.49,0-10.78-.24-14.9-.66-13.44-1.4-15.44-5.36-15.44-7.59s2-6.2,15.44-7.59c4.12-.43,9.41-.66,14.9-.66s10.78.24,14.9.66c13.43,1.4,15.44,5.36,15.44,7.59s-2.01,6.2-15.44,7.59c-4.12.43-9.41.66-14.9.66Z"/>
        <path class="cls-15" d="M70.15,122.17c4.87,0,9.56.21,13.24.59,11.76,1.22,13.82,4.62,13.82,6.59s-2.06,5.38-13.82,6.59c-3.68.38-8.37.59-13.24.59s-9.56-.21-13.24-.59c-11.76-1.21-13.82-4.61-13.82-6.59s2.06-5.38,13.82-6.59c3.68-.38,8.37-.59,13.24-.59Z"/>
        <path class="cls-1" d="M70.05,123.24c4.26,0,8.35.18,11.59.51,10.09,1.03,12.19,3.87,12.19,5.59s-2.11,4.56-12.19,5.59c-3.24.33-7.33.51-11.59.51s-8.35-.18-11.59-.51c-10.09-1.03-12.2-3.87-12.2-5.59s2.11-4.56,12.2-5.59c3.24-.33,7.33-.51,11.59-.51Z"/>
        <path class="cls-16" d="M69.96,124.32c3.64,0,7.13.16,9.94.44,8.41.85,10.57,3.13,10.57,4.59s-2.16,3.74-10.57,4.59c-2.8.28-6.29.44-9.94.44s-7.13-.16-9.94-.44c-8.41-.85-10.57-3.13-10.57-4.59s2.16-3.74,10.57-4.59c2.8-.28,6.29-.44,9.93-.44Z"/>
        <path class="cls-6" d="M69.87,125.4c3.03,0,5.92.13,8.28.36,6.74.67,8.95,2.39,8.95,3.59s-2.21,2.92-8.95,3.59c-2.36.23-5.26.36-8.28.36s-5.92-.13-8.28-.36c-6.74-.67-8.95-2.39-8.95-3.59s2.21-2.92,8.95-3.59c2.36-.23,5.25-.36,8.28-.36Z"/>
        <path class="cls-7" d="M69.77,126.47c2.41,0,4.7.1,6.63.28,5.06.48,7.32,1.64,7.32,2.59s-2.26,2.11-7.32,2.59c-1.92.18-4.22.28-6.63.28s-4.7-.1-6.63-.28c-5.07-.48-7.33-1.64-7.33-2.59s2.26-2.11,7.33-2.59c1.92-.18,4.22-.28,6.63-.28Z"/>
        <path class="cls-9" d="M80.35,129.35c0,.99-4.78,1.8-10.68,1.8s-10.67-.8-10.67-1.8,4.78-1.8,10.67-1.8,10.68.8,10.68,1.8Z"/>
      </g>
      <g>
        <path class="cls-12" d="M40.13,60.02c-3.75-3.6-6.93-7.74-10.91-11.11-1.95-1.65-7.68-6.78-9.79-2.64-3.13,6.14,13.9,11.97,8.69,18.78-3.32,4.34-10.24-1.19-12.34-4.02-3.79-5.11-4.39-12.22-4.16-18.37.27-7.45-.04-13.75-2.17-20.93-1.33-4.48-3.15-1.22-3.36,1.57-.3,4.14-2.34,11.84-2.34,11.84,0,0-1.62,9.32-2.42,13.9C.69,52.76-.04,56.83,0,60.61c.03,2.53.17,6.65,1.27,8.94,1.22,2.54,3.55,4.27,5.72,5.96,6.75,5.28,13.78,9.57,21.56,13.12,10.9,4.98,18.74,13.35,17.39,25.94,2.27-.92,5.3-2.24,7.11-4.04,2.6-2.6,4.5-5.64,5.63-9.14,2.44-7.53.45-14.65-3.19-21.44-4.06-7.58-9.76-14.56-15.37-19.93ZM72.61,79.94c-3.64,6.79-5.63,13.9-3.19,21.44,1.13,3.5,3.03,6.55,5.63,9.14,1.81,1.81,4.84,3.12,7.11,4.04-1.35-12.59,6.49-20.96,17.39-25.94,7.78-3.55,14.81-7.84,21.56-13.12,2.17-1.7,4.5-3.42,5.72-5.96,1.1-2.29,1.24-6.41,1.27-8.94.04-3.78-.69-7.85-1.34-11.57-.8-4.58-2.42-13.9-2.42-13.9,0,0-2.04-7.7-2.34-11.84-.21-2.79-2.03-6.05-3.36-1.57-2.13,7.17-2.44,13.48-2.17,20.93.22,6.15-.37,13.26-4.16,18.37-2.1,2.83-9.01,8.36-12.34,4.02-5.2-6.8,11.83-12.63,8.7-18.78-2.11-4.14-7.84.99-9.79,2.64-3.98,3.37-7.15,7.51-10.91,11.11-5.6,5.37-11.31,12.35-15.37,19.93Z"/>
        <g>
          <path class="cls-10" d="M88.96,12.91c0-7.13-5.78-12.91-12.91-12.91-6.23,0-11.42,4.41-12.63,10.28-1.22-5.87-6.41-10.28-12.64-10.28-7.13,0-12.91,5.78-12.91,12.91,0,13.98,26.89,38.18,26.89,38.18,0,0,24.2-24.2,24.2-38.18Z"/>
          <g>
            <path class="cls-4" d="M51.57,28.22c-.62.48-2.14-.29-3.88-2.17-1.71-1.89-3.73-4.9-4.65-9.02-.42-2.06-.48-4.22.04-6.16.49-1.94,1.53-3.56,2.62-4.55.52-.53,1.1-.87,1.58-1.16.52-.24.96-.44,1.36-.51.8-.15,1.31-.04,1.52.3.46.7-.54,1.98-1.23,3.79-.35.9-.61,1.91-.68,3.08-.08,1.16.07,2.54.37,4.04.66,3.03,1.82,5.92,2.52,8.13.73,2.21,1.04,3.76.42,4.25Z"/>
            <path class="cls-20" d="M50.82,27.29c-.57.41-1.91-.32-3.45-2.05-1.51-1.73-3.26-4.48-4.09-8.16-.41-1.83-.46-3.74-.12-5.46.33-1.73,1.1-3.22,1.97-4.22.41-.52.9-.88,1.29-1.2.44-.28.83-.48,1.17-.61.72-.21,1.19-.17,1.41.11.48.58-.29,1.81-.73,3.55-.5,1.7-.59,3.95.03,6.75.62,2.79,1.61,5.43,2.22,7.44.62,2.02.87,3.44.28,3.86Z"/>
            <path class="cls-13" d="M50.11,26.32c-.53.35-1.69-.34-3.03-1.91-1.31-1.57-2.82-4.05-3.56-7.29-.36-1.61-.46-3.27-.23-4.78.21-1.51.77-2.85,1.43-3.82.65-.98,1.4-1.57,1.98-1.87.59-.29,1.04-.29,1.26-.07.47.46-.02,1.63-.26,3.26-.3,1.61-.27,3.75.32,6.29.57,2.54,1.42,4.91,1.93,6.73.52,1.82.7,3.11.17,3.46Z"/>
            <path class="cls-5" d="M49.42,25.34c-.47.29-1.48-.34-2.62-1.75-1.12-1.4-2.4-3.6-3.05-6.42-.66-2.8-.34-5.72.67-7.49.46-.9,1.03-1.51,1.51-1.83.46-.34.86-.39,1.08-.23.45.33.23,1.43.13,2.92-.13,1.49.03,3.47.54,5.74.51,2.27,1.23,4.38,1.65,6,.43,1.61.55,2.76.08,3.05Z"/>
            <path class="cls-11" d="M48.76,24.33c-.41.24-1.26-.33-2.21-1.57-.94-1.23-2-3.14-2.55-5.54-.58-2.39-.4-4.81.28-6.39.66-1.59,1.57-2.26,1.97-2.04.44.23.39,1.19.44,2.53.03,1.34.23,3.11.7,5.11.96,3.98,2.25,7.39,1.37,7.89Z"/>
            <path class="cls-19" d="M48.14,23.3c-.35.19-1.05-.32-1.82-1.37-.76-1.05-1.61-2.67-2.08-4.66-.49-1.98-.41-3.96,0-5.29.41-1.35,1.06-2.02,1.44-1.89.38.13.47.94.62,2.1.14,1.16.36,2.7.78,4.41.82,3.41,1.79,6.31,1.05,6.71Z"/>
            <path class="cls-3" d="M47.55,22.25c-.55.29-2.28-1.74-3.07-4.94-.39-1.59-.4-3.14-.16-4.23.11-.54.28-.97.46-1.25.17-.28.35-.41.51-.39.33.06.49.71.7,1.67.19.96.44,2.23.78,3.64.69,2.81,1.37,5.2.77,5.5Z"/>
            <path class="cls-8" d="M46.99,21.18c-.43.2-1.67-1.4-2.27-3.83-.64-2.43-.11-4.56.39-4.5.5.04.79,1.88,1.36,4.07.54,2.19.99,4.05.52,4.26Z"/>
            <path class="cls-2" d="M46.48,20.08c-.31.13-1.11-1.02-1.52-2.69-.42-1.67-.23-3.11.12-3.12.34-.01.71,1.27,1.09,2.82.38,1.55.64,2.86.31,3Z"/>
            <path class="cls-14" d="M46.01,18.96c-.18.06-.58-.61-.82-1.53-.24-.92-.19-1.72,0-1.75.19-.03.46.69.68,1.57.23.89.32,1.64.14,1.7Z"/>
            <path class="cls-17" d="M45.6,17.8s-.12-.14-.17-.35c-.05-.2-.06-.38-.02-.39.04,0,.11.15.15.35.05.2.07.37.04.38Z"/>
          </g>
        </g>
      </g>
    </g>
  </g>
</svg>