<svg xmlns="http://www.w3.org/2000/svg" xmlns:xlink="http://www.w3.org/1999/xlink" version="1.1" width="256" height="256" viewBox="0 0 256 256" xml:space="preserve">

<defs>
</defs>
<g style="stroke: none; stroke-width: 0; stroke-dasharray: none; stroke-linecap: butt; stroke-linejoin: miter; stroke-miterlimit: 10; fill: none; fill-rule: nonzero; opacity: 1;" transform="translate(1.4065934065934016 1.4065934065934016) scale(2.81 2.81)" >
	<path d="M 82.985 34.346 h -9.446 c -0.699 -1.908 -2.155 -3.482 -4.116 -4.284 l -21.632 -8.844 c -1.801 -0.736 -3.783 -0.736 -5.582 0 l -21.632 8.844 c -1.961 0.802 -3.417 2.377 -4.116 4.284 H 7.015 C 3.147 34.346 0 37.493 0 41.361 v 7.278 c 0 3.868 3.147 7.015 7.015 7.015 h 9.446 c 0.699 1.908 2.155 3.483 4.117 4.285 l 21.631 8.843 c 0.9 0.369 1.845 0.553 2.791 0.553 c 0.945 0 1.891 -0.184 2.79 -0.552 l 21.633 -8.844 c 1.962 -0.803 3.417 -2.377 4.116 -4.285 h 9.446 c 3.868 0 7.015 -3.146 7.015 -7.015 v -7.278 C 90 37.493 86.854 34.346 82.985 34.346 z M 4 48.639 v -7.278 c 0 -1.662 1.353 -3.015 3.015 -3.015 h 8.979 v 13.307 H 7.015 C 5.353 51.653 4 50.301 4 48.639 z M 86 48.639 c 0 1.662 -1.353 3.015 -3.015 3.015 h -8.979 V 38.346 h 8.979 c 1.662 0 3.015 1.353 3.015 3.015 V 48.639 z" style="stroke: none; stroke-width: 1; stroke-dasharray: none; stroke-linecap: butt; stroke-linejoin: miter; stroke-miterlimit: 10; fill: rgb(0,188,232); fill-rule: nonzero; opacity: 1;" transform=" matrix(1 0 0 1 0 0) " stroke-linecap="round" />
	<path d="M 63.599 40.083 c -0.156 0 -0.315 -0.019 -0.474 -0.057 l -12.756 -3.099 c -3.412 -0.828 -7.326 -0.827 -10.738 0 l -12.756 3.099 c -1.077 0.261 -2.155 -0.398 -2.416 -1.471 c -0.261 -1.073 0.398 -2.155 1.471 -2.416 l 12.756 -3.099 c 4.071 -0.989 8.556 -0.989 12.626 0 l 12.756 3.099 c 1.074 0.261 1.732 1.342 1.472 2.416 C 65.318 39.47 64.5 40.083 63.599 40.083 z" style="stroke: none; stroke-width: 1; stroke-dasharray: none; stroke-linecap: butt; stroke-linejoin: miter; stroke-miterlimit: 10; fill: rgb(0,211,239); fill-rule: nonzero; opacity: 1;" transform=" matrix(1 0 0 1 0 0) " stroke-linecap="round" />
	<path d="M 45 57.701 c -2.139 0 -4.278 -0.248 -6.313 -0.742 L 25.931 53.86 c -1.073 -0.261 -1.732 -1.342 -1.471 -2.415 c 0.261 -1.073 1.342 -1.735 2.416 -1.472 l 12.756 3.099 c 3.413 0.828 7.327 0.828 10.738 0 l 12.756 -3.099 c 1.067 -0.267 2.154 0.397 2.415 1.472 c 0.261 1.073 -0.397 2.154 -1.472 2.415 l -12.756 3.099 C 49.277 57.453 47.139 57.701 45 57.701 z" style="stroke: none; stroke-width: 1; stroke-dasharray: none; stroke-linecap: butt; stroke-linejoin: miter; stroke-miterlimit: 10; fill: rgb(0,211,239); fill-rule: nonzero; opacity: 1;" transform=" matrix(1 0 0 1 0 0) " stroke-linecap="round" />
	<path d="M 63.597 47 H 26.403 c -1.104 0 -2 -0.896 -2 -2 s 0.896 -2 2 -2 h 37.194 c 1.104 0 2 0.896 2 2 S 64.701 47 63.597 47 z" style="stroke: none; stroke-width: 1; stroke-dasharray: none; stroke-linecap: butt; stroke-linejoin: miter; stroke-miterlimit: 10; fill: rgb(0,211,239); fill-rule: nonzero; opacity: 1;" transform=" matrix(1 0 0 1 0 0) " stroke-linecap="round" />
</g>
</svg>