<?xml version="1.0" encoding="iso-8859-1"?>
<!-- Uploaded to: SVG Repo, www.svgrepo.com, Generator: SVG Repo Mixer Tools -->
<!DOCTYPE svg PUBLIC "-//W3C//DTD SVG 1.1//EN" "http://www.w3.org/Graphics/SVG/1.1/DTD/svg11.dtd">
<svg fill="#000000" version="1.1" id="Capa_1" xmlns="http://www.w3.org/2000/svg" xmlns:xlink="http://www.w3.org/1999/xlink" 
	 width="800px" height="800px" viewBox="0 0 486.684 486.684"
	 xml:space="preserve">
<g>
	<g id="_x34_1_11_">
		<g>
			<path d="M199.602,257.366H60.022c-10.297,0-18.642,8.346-18.642,18.639v57.037c0,10.299,8.345,18.643,18.642,18.643h139.58
				c10.298,0,18.646-8.344,18.646-18.643v-57.037C218.247,265.711,209.9,257.366,199.602,257.366z"/>
			<path d="M259.607,235.819c0-20.689-6.896-27.357-18.148-36.525l-0.236-0.193c-12.593-10.262-22.991-18.4-32.726-25.617
				c-0.656-0.486-2.183-1.773-2.183-3.215v-43.225h9.96v-24.975h-0.023c-0.056-19.049-15.511-34.477-34.574-34.477H77.933
				c-19.096,0-34.58,15.482-34.58,34.58c0.006,0,0.012,0,0.018,0v24.871h9.942v43.135c0,1.441-1.525,2.729-2.182,3.215
				c-9.729,7.213-20.128,15.354-32.725,25.617l-0.234,0.191C6.917,208.369,0.02,215.04,0.02,235.728
				c0,8.236-0.005,42.601-0.01,75.779C0.005,342.474,0,372.407,0,379.101C0,398.714,14.924,419,39.898,419h90.693
				c0,0,80.549,0.092,89.137,0.092c24.974,0,39.897-20.287,39.897-39.899l-0.01-67.597
				C259.613,278.418,259.607,244.053,259.607,235.819z M219.729,394.047c-8.585,0-89.108-0.09-89.122-0.09H39.899
				c-10.898,0-14.854-8.883-14.854-14.855c0-6.693,0.005-36.625,0.01-67.59c0.005-33.182,0.01-67.547,0.01-75.783
				c0-9.84,0.336-10.113,8.926-17.111l0.237-0.193c12.293-10.018,22.404-17.934,31.818-24.912
				c7.824-5.801,12.312-14.305,12.312-23.334v-43.135h102.913v43.225c0,9.027,4.488,17.533,12.313,23.332
				c9.419,6.984,19.529,14.9,31.819,24.914l0.238,0.195c8.589,6.996,8.924,7.27,8.924,17.109c0,8.234,0.005,42.602,0.01,75.781
				l0.009,67.592C234.582,385.165,230.626,394.047,219.729,394.047z"/>
			<path d="M447.282,324.473l-0.276-0.021l-120.938-0.118c-23.564,0-42.737,19.174-42.737,42.739
				c0,23.566,19.173,42.738,42.737,42.738h0.009l120.652-0.119l0.554-0.021c22.095-1.711,39.401-20.422,39.401-42.599
				C486.684,344.899,469.376,326.186,447.282,324.473z M326.062,395.307c-15.564-0.004-28.229-12.668-28.229-28.234
				c0-15.569,12.666-28.235,28.228-28.235l60.181,0.06v56.352L326.062,395.307z"/>
			<path d="M327.445,318.924c0.002,0,0.002,0,0.003,0c3.074,0,6.165-0.338,9.183-1.002l0.271-0.061l115.771-34.974
				c10.926-3.313,19.907-10.683,25.29-20.748s6.523-21.627,3.212-32.553c-5.503-18.152-21.934-30.348-40.886-30.348
				c-4.192,0-8.369,0.621-12.42,1.85l-115.433,35.117l-0.521,0.182c-20.648,8.047-31.782,30.976-25.348,52.197
				C292.066,306.731,308.494,318.922,327.445,318.924z M432.082,214.967c2.679-0.811,5.438-1.223,8.205-1.223
				c12.32,0,23.427,8.246,27.006,20.051c2.188,7.219,1.435,14.855-2.122,21.506c-3.556,6.652-9.489,11.52-16.7,13.705
				l-57.608,17.402l-16.349-53.929L432.082,214.967z"/>
		</g>
	</g>
</g>
</svg>