<?xml version="1.0" ?><!-- Uploaded to: SVG Repo, www.svgrepo.com, Generator: SVG Repo Mixer Tools -->
<svg fill="#000000" width="800px" height="800px" viewBox="0 0 32 32" id="template" xmlns="http://www.w3.org/2000/svg"><title/><path d="M7.782,19.571a3.26,3.26,0,0,0-1.947,4.176.356.356,0,0,0,.333.233.367.367,0,0,0,.121-.021.355.355,0,0,0,.212-.454,2.553,2.553,0,0,1,1.523-3.268.354.354,0,1,0-.242-.666Z"/><path d="M30,28.766H26.083l.835-6.4a4.651,4.651,0,0,0,1.144.183,2.269,2.269,0,0,0,.844-.146,2.121,2.121,0,0,0,1.337-1.422c.651-2.216-1.8-5.9-2.284-6.6l.395-3.023c0-.014,0-.027,0-.041s0-.022,0-.035a.343.343,0,0,0-.078-.2c0-.006-.013-.008-.018-.013l-.005-.011-8.9-8.438a.357.357,0,0,0-.489,0l-8.9,8.438,0,.011c-.006,0-.013.007-.018.013a.338.338,0,0,0-.079.2c0,.013,0,.023,0,.035a.283.283,0,0,0,0,.041l.788,6.037a5.29,5.29,0,0,0-1.21-.214L5.62,6.735A1.752,1.752,0,0,0,3.38,5.691L2.8,5.9a1.75,1.75,0,0,0-1.045,2.24L5.555,18.6a5.356,5.356,0,0,0-1.4,5.764l1.605,4.407H2a.355.355,0,0,0,0,.709H30a.355.355,0,0,0,0-.709Zm-.437-7.982a1.433,1.433,0,0,1-.917.964,2.68,2.68,0,0,1-1.638-.073l.811-6.213C28.723,16.911,29.979,19.369,29.563,20.784ZM19.1,3.367l8.012,7.6H11.087ZM2.417,7.9A1.041,1.041,0,0,1,3.038,6.57l.584-.213a1.042,1.042,0,0,1,1.332.621L8.683,17.225a5.258,5.258,0,0,0-1.333.281,5.316,5.316,0,0,0-1.2.642Zm10.1,20.864H6.512L4.819,24.117a4.639,4.639,0,0,1,8.718-3.174l2.847,7.823Zm12.848,0h-8.23L14.2,20.7a5.315,5.315,0,0,0-2.765-3.018c-.018-.008-.037-.011-.055-.019L10.6,11.671h17l-1.275,9.771c-3.413-1.342-8.667-5.732-10.855-7.754a.355.355,0,0,0-.481.521c.849.785,7.038,6.415,11.242,7.949Z"/></svg>