<?xml version="1.0" encoding="iso-8859-1"?>
<!-- Uploaded to: SVG Repo, www.svgrepo.com, Generator: SVG Repo Mixer Tools -->
<!DOCTYPE svg PUBLIC "-//W3C//DTD SVG 1.1//EN" "http://www.w3.org/Graphics/SVG/1.1/DTD/svg11.dtd">
<svg fill="#000000" height="800px" width="800px" version="1.1" id="Capa_1" xmlns="http://www.w3.org/2000/svg" xmlns:xlink="http://www.w3.org/1999/xlink" 
	 viewBox="0 0 493.314 493.314" xml:space="preserve">
<g>
	<path d="M394.653,278.214h-53.66c7.035-14.115,11.002-30.019,11.002-46.832c0-26.29-9.682-50.36-25.664-68.835
		c2.636-4.095,5.089-8.342,7.284-12.646c41.538-81.442,53.44-130.005,36.386-148.462c-0.729-0.79-1.73-1.274-2.803-1.355
		C366.448,0.028,365.705,0,364.958,0c-33.966,0-66.228,57.573-96.396,116.719c-1.767,3.465-3.407,7.057-4.907,10.703
		c-5.535-0.902-11.212-1.379-16.998-1.379c-5.021,0-9.96,0.361-14.796,1.044c-1.463-3.53-3.059-7.009-4.771-10.368
		C196.919,57.569,164.663,0,130.694,0c-0.745,0-1.492,0.028-2.24,0.084c-1.072,0.081-2.073,0.564-2.803,1.355
		c-17.052,18.454-5.15,67.017,36.386,148.463c1.922,3.767,4.046,7.487,6.311,11.105c-16.794,18.668-27.029,43.348-27.029,70.376
		c0,16.814,3.967,32.718,11.003,46.833H98.659c-23.988,0-43.504,19.517-43.504,43.505v11.796c0,23.989,19.516,43.506,43.504,43.506
		h44.043l-0.004,72.787c0,23.988,19.517,43.505,43.506,43.505h11.797c23.988,0,43.504-19.517,43.504-43.505v-22.676h10.301v22.676
		c0,23.988,19.517,43.504,43.506,43.504h11.795c23.988,0,43.504-19.516,43.504-43.504l0.004-72.787h44.039
		c23.989,0,43.506-19.517,43.506-43.506V321.72C438.159,297.73,418.642,278.214,394.653,278.214z M276.134,120.58
		c20.03-39.27,57-111.757,88.687-112.075c4.884,6.718,7.607,22.089-3.794,57.157c-7.11,21.87-18.554,48.161-34.984,80.376
		c-1.749,3.429-3.675,6.818-5.728,10.118c-1.415-1.387-2.868-2.734-4.358-4.039c1.205-1.811,2.29-3.646,3.224-5.476
		c19.203-37.582,23.408-60.758,12.857-70.854c-0.641-0.612-1.456-1.009-2.333-1.136c-19.899-2.843-35.486,24.11-49.727,51.988
		c-0.689,1.351-1.317,2.741-1.906,4.187c-1.953-0.611-3.934-1.163-5.935-1.661C273.378,126.245,274.713,123.368,276.134,120.58z
		 M309.307,146.752c-7.111-5.277-14.908-9.679-23.23-13.049c0.459-1.104,0.944-2.165,1.471-3.196
		c8.574-16.787,24.29-47.552,39.391-47.552c0.037,0,0.076,0,0.113,0.001c3.648,5.032,5.253,19.318-15.442,59.82
		C310.934,144.1,310.159,145.43,309.307,146.752z M134.626,65.662c-11.401-35.069-8.679-50.439-3.795-57.157
		c31.686,0.327,68.658,72.808,88.687,112.075c1.339,2.626,2.597,5.332,3.778,8.078c-2.013,0.457-4.003,0.974-5.97,1.545
		c-0.518-1.227-1.067-2.419-1.65-3.563c-14.242-27.877-29.816-54.85-49.728-51.987c-0.877,0.127-1.692,0.523-2.333,1.136
		c-10.549,10.094-6.344,33.27,12.857,70.854c0.716,1.401,1.522,2.799,2.394,4.184c-1.502,1.266-2.969,2.571-4.396,3.917
		c-1.729-2.852-3.36-5.764-4.86-8.703C153.177,113.819,141.734,87.528,134.626,65.662z M185.61,145.582
		c-0.564-0.934-1.09-1.872-1.568-2.808c-20.692-40.503-19.089-54.787-15.441-59.818c0.037-0.001,0.075-0.001,0.112-0.001
		c15.099,0,30.818,30.767,39.392,47.548c0.401,0.787,0.775,1.592,1.136,2.413C200.792,136.137,192.86,140.409,185.61,145.582z
		 M242.407,134.642v42.526c0,2.348,1.902,4.25,4.25,4.25s4.25-1.902,4.25-4.25v-42.526c51.432,2.232,92.588,44.768,92.588,96.74
		c0,53.397-43.441,96.839-96.838,96.839c-27.168,0-51.753-11.25-69.355-29.331c-0.402-1.033-1.193-1.866-2.198-2.324
		c-15.698-17.218-25.284-40.103-25.284-65.184C149.819,179.409,190.975,136.874,242.407,134.642z M177.598,310.859
		c18.504,16.101,42.662,25.861,69.059,25.861s50.555-9.761,69.059-25.861v25.56c0,36.033-29.315,65.349-65.348,65.349h-7.422
		c-36.033,0-65.348-29.316-65.348-65.349V310.859z M429.659,333.516c0,16.586-11.597,30.503-27.105,34.096v-46.375
		c0-2.348-1.902-4.25-4.25-4.25c-2.348,0-4.25,1.902-4.25,4.25v47.285h-47.69c-2.347,0-4.25,1.902-4.25,4.25l-0.004,72.787h-67.52
		c-2.348,0-4.25,1.902-4.25,4.25c0,2.348,1.902,4.25,4.25,4.25h67.252c-2.105,17.303-16.875,30.754-34.736,30.754h-11.795
		c-19.303,0-35.006-15.703-35.006-35.004v-26.926c0-2.348-1.902-4.25-4.25-4.25h-18.801c-2.348,0-4.25,1.902-4.25,4.25v26.926
		c0,19.302-15.703,35.005-35.004,35.005h-11.797c-17.863,0-32.634-13.451-34.738-30.755h65.516c2.348,0,4.25-1.902,4.25-4.25
		c0-2.348-1.902-4.25-4.25-4.25h-65.783l0.004-72.787c0-1.127-0.447-2.208-1.245-3.005c-0.797-0.797-1.878-1.245-3.005-1.245
		h-44.043v-47.285c0-2.348-1.902-4.25-4.25-4.25c-2.348,0-4.25,1.902-4.25,4.25v47.018c-17.303-2.105-30.754-16.875-30.754-34.738
		V321.72c0-17.862,13.451-32.632,30.754-34.737v17.804c0,2.348,1.902,4.25,4.25,4.25c2.348,0,4.25-1.902,4.25-4.25v-18.071h54.152
		c3.513,5.668,7.547,10.98,12.037,15.868v33.836c0,40.721,33.128,73.849,73.848,73.849h7.422c40.72,0,73.848-33.128,73.848-73.849
		v-33.836c4.49-4.888,8.525-10.2,12.038-15.869h57.8v18.072c0,2.348,1.902,4.25,4.25,4.25c2.348,0,4.25-1.902,4.25-4.25v-17.162
		c15.509,3.593,27.105,17.511,27.105,34.096V333.516z"/>
	<path d="M191.266,226.564c6.55,0,11.879-5.327,11.879-11.876c0-6.549-5.329-11.876-11.879-11.876
		c-6.548,0-11.875,5.327-11.875,11.876C179.391,221.237,184.718,226.564,191.266,226.564z M191.266,211.313
		c1.863,0,3.379,1.515,3.379,3.376c0,1.861-1.516,3.376-3.379,3.376c-1.861,0-3.375-1.515-3.375-3.376
		C187.891,212.827,189.405,211.313,191.266,211.313z"/>
	<path d="M294.311,226.564c6.548,0,11.875-5.327,11.875-11.876c0-6.549-5.327-11.876-11.875-11.876
		c-6.549,0-11.877,5.327-11.877,11.876C282.434,221.237,287.762,226.564,294.311,226.564z M294.311,211.313
		c1.861,0,3.375,1.515,3.375,3.376c0,1.861-1.514,3.376-3.375,3.376c-1.862,0-3.377-1.515-3.377-3.376
		C290.934,212.827,292.449,211.313,294.311,211.313z"/>
	<path d="M228.12,299.025h18.537l18.535-0.002c2.348,0,4.25-1.903,4.25-4.25c0-2.348-1.903-4.25-4.25-4.25l-14.285,0.002v-33.647
		c5.357-2.003,14.82-6.677,14.82-14.694c0-3.54-1.313-9.479-10.102-9.479c-1.305,0-2.673,0.1-4.122,0.205
		c-1.567,0.114-3.188,0.232-4.846,0.232s-3.278-0.118-4.846-0.232c-1.449-0.105-2.817-0.205-4.122-0.205
		c-8.79,0-10.102,5.939-10.102,9.479c0,8.02,9.463,12.691,14.82,14.695v33.646H228.12c-2.348,0-4.25,1.902-4.25,4.25
		C223.87,297.123,225.772,299.025,228.12,299.025z M236.086,242.184c0-0.412,0.032-0.689,0.063-0.863
		c0.249-0.054,0.717-0.115,1.539-0.115c0.996,0,2.214,0.089,3.504,0.183c1.639,0.119,3.496,0.255,5.464,0.255
		c1.967,0,3.824-0.136,5.464-0.255c1.29-0.094,2.508-0.183,3.504-0.183c0.822,0,1.29,0.062,1.539,0.114
		c0.031,0.175,0.064,0.452,0.064,0.864c0,2.164-5.443,5.459-10.57,7.183C241.529,247.643,236.086,244.348,236.086,242.184z"/>
</g>
</svg>