<?xml version="1.0" encoding="iso-8859-1"?>
<!-- Uploaded to: SVG Repo, www.svgrepo.com, Generator: SVG Repo Mixer Tools -->
<svg fill="#000000" height="800px" width="800px" version="1.1" id="Layer_1" xmlns="http://www.w3.org/2000/svg" xmlns:xlink="http://www.w3.org/1999/xlink" 
	 viewBox="0 0 511.999 511.999" xml:space="preserve">
<g>
	<g>
		<path d="M453.914,379.053h-23.778v-88.545c0-17.333-14.102-31.434-31.435-31.434h-63.907
			c-29.257-47.724-81.903-79.633-141.867-79.633c-2.455,0-4.895,0.064-7.323,0.17l-1.871-5.255h64.195
			c17.334,0,31.434-14.102,31.434-31.434c0-17.334-14.101-31.435-31.434-31.435h-86.572l-32.245-90.592
			C123.301,4.568,105.286-3.99,88.957,1.822C72.628,7.634,64.07,25.648,69.882,41.978l54.238,152.381
			C66.675,220.577,26.65,278.56,26.65,345.72c0,91.687,74.592,166.28,166.28,166.28s166.28-74.592,166.28-166.28
			c0-8.073-0.59-16.009-1.707-23.778h9.766v88.545c0,17.334,14.102,31.435,31.434,31.435h55.212
			c17.334,0,31.435-14.102,31.435-31.435C485.349,393.155,471.248,379.053,453.914,379.053z M89.103,35.137
			c-2.04-5.733,0.964-12.058,6.696-14.097c5.735-2.04,12.059,0.964,14.098,6.696l34.657,97.371c1.446,4.064,5.294,6.779,9.609,6.779
			h93.768c6.085,0,11.036,4.951,11.036,11.037c0,6.085-4.951,11.036-11.036,11.036h-78.652c-3.315,0-6.422,1.611-8.334,4.319
			c-1.911,2.708-2.387,6.177-1.275,9.3l5.077,14.264c-7.367,1.263-14.572,3.006-21.576,5.207L89.103,35.137z M192.929,491.601
			c-80.44,0-145.881-65.443-145.881-145.881s65.442-145.88,145.881-145.88S338.81,265.281,338.81,345.72
			S273.369,491.601,192.929,491.601z M453.914,421.524h-55.212c-6.085,0-11.036-4.951-11.036-11.037v-98.744
			c0-5.633-4.566-10.199-10.199-10.199h-24.226c-2.093-7.587-4.712-14.958-7.815-22.072h53.276c6.086,0,11.037,4.951,11.037,11.036
			v98.744c0,5.633,4.566,10.199,10.199,10.199h33.977c6.086,0,11.037,4.951,11.037,11.036
			C464.951,416.573,460,421.524,453.914,421.524z"/>
	</g>
</g>
<g>
	<g>
		<path d="M192.929,232.528c-62.413,0-113.19,50.777-113.19,113.19s50.777,113.19,113.19,113.19S306.12,408.133,306.12,345.72
			S255.343,232.528,192.929,232.528z M100.587,354.857h65.596l-47.048,47.048C108.964,388.579,102.313,372.432,100.587,354.857z
			 M180.606,437.692c-17.908-2.387-34.214-9.9-47.397-21.013l47.397-47.397V437.692z M180.606,334.458h-79.785
			c2.1-17.276,8.962-33.104,19.237-46.123l17.877,17.877c1.992,1.992,4.602,2.987,7.212,2.987s5.221-0.996,7.212-2.987
			c3.983-3.983,3.984-10.441,0-14.424l-17.992-17.992c12.973-10.584,28.852-17.732,46.238-20.05V334.458z M264.852,404.281
			l-27.548-27.548c-3.983-3.983-10.441-3.983-14.425,0c-3.984,3.983-3.983,10.441,0,14.425l27.434,27.434
			c-13.815,10.903-30.793,17.962-49.308,19.566v-83.299h25.901c5.633,0,10.199-4.566,10.199-10.199s-4.566-10.199-10.199-10.199
			h-25.901v-81.176c17.984,1.558,34.516,8.267,48.11,18.642l-25.175,25.175c-3.983,3.983-3.983,10.441,0,14.424
			c1.992,1.992,4.602,2.987,7.212,2.987s5.221-0.996,7.212-2.987l25.524-25.524c13.615,16.152,21.834,36.993,21.834,59.721
			C285.722,367.907,277.891,388.297,264.852,404.281z"/>
	</g>
</g>
<g>
	<g>
		<path d="M260.883,334.459h-3.185c-5.633,0-10.199,4.566-10.199,10.199s4.566,10.199,10.199,10.199h3.185
			c5.633,0,10.199-4.566,10.199-10.199S266.516,334.459,260.883,334.459z"/>
	</g>
</g>
</svg>